<svg version="1.1" xmlns="http://www.w3.org/2000/svg" xmlns:xlink="http://www.w3.org/1999/xlink" viewBox="0 0 172 172"><g fill="#ecf0f1" fill-rule="evenodd" stroke="none" stroke-width="1" stroke-linecap="butt" stroke-linejoin="miter" stroke-miterlimit="10" stroke-dasharray="" stroke-dashoffset="0" font-family="none" font-weight="none" font-size="none" text-anchor="none" style="mix-blend-mode: normal"><g transform="scale(0.03968,0.03968)"><path d="M1894,471v0h50c137,0 249,112 249,249v0c0,137 -112,249 -249,249h-116v-1c-667,35 -1196,586 -1196,1261c0,697 565,1263 1263,1263c664,0 1209,-513 1259,-1164h-417h-33c0,0 -210,-87 -37,-310c173,-223 557,-780 557,-780c0,0 89,-153 196,-139c107,-14 196,139 196,139c0,0 384,557 557,780c173,223 -37,310 -37,310h-33h-452c-51,925 -818,1659 -1755,1659c-971,0 -1758,-787 -1758,-1758c0,-949 751,-1722 1692,-1757v-1h67z"></path></g></g></svg>