<svg version="1.1" xmlns="http://www.w3.org/2000/svg" xmlns:xlink="http://www.w3.org/1999/xlink" viewBox="0 0 172 172"><g fill="none" fill-rule="nonzero" stroke="none" stroke-width="1" stroke-linecap="butt" stroke-linejoin="miter" stroke-miterlimit="10" stroke-dasharray="" stroke-dashoffset="0" font-family="none" font-weight="none" font-size="none" text-anchor="none" style="mix-blend-mode: normal"><path d="M0,172v-172h172v172z" fill="none"></path><g fill="#ecf0f1"><path d="M69.28711,14.33333l-3.52734,18.08464c-5.8821,2.22427 -11.32102,5.33176 -16.097,9.25228l-17.37077,-5.99089l-16.71289,28.97461l13.89941,12.07975c-0.49282,3.02401 -0.81185,6.10305 -0.81185,9.26628c0,3.16323 0.31903,6.24227 0.81185,9.26628l-13.89941,12.07975l16.71289,28.9746l17.37077,-5.99088c4.77599,3.92052 10.2149,7.02801 16.097,9.25227l3.52734,18.08464h33.42578l3.52735,-18.08464c5.88211,-2.22427 11.32102,-5.33176 16.097,-9.25227l17.37077,5.99088l16.71289,-28.9746l-13.89941,-12.07975c0.49282,-3.02401 0.81185,-6.10305 0.81185,-9.26628c0,-3.16323 -0.31902,-6.24227 -0.81185,-9.26628l13.89941,-12.07975l-16.71289,-28.97461l-17.37077,5.99089c-4.77598,-3.92052 -10.21489,-7.02801 -16.097,-9.25228l-3.52735,-18.08464zM86,57.33333c15.83117,0 28.66667,12.8355 28.66667,28.66667c0,15.83117 -12.8355,28.66667 -28.66667,28.66667c-15.83117,0 -28.66667,-12.8355 -28.66667,-28.66667c0,-15.83117 12.8355,-28.66667 28.66667,-28.66667z"></path></g></g></svg>